<svg id="ibm-8bar-pos" data-name="ibm-8bar-pos" xmlns="http://www.w3.org/2000/svg" viewBox="0 0 648.02 257.21"><defs><style>.cls-1{fill:#231f20;}</style></defs><title>ibm-8bar-pos</title><rect class="cls-1" x="36.01" y="170.82" width="54.02" height="18.02"/><path class="cls-1" d="M202,410.19v18H76s.08-18,0-18H202" transform="translate(-76 -171)"/><path class="cls-1" d="M202,376v18H76s.08-18,0-18H202" transform="translate(-76 -171)"/><path class="cls-1" d="M202,205.13v18H76s.08-18,0-18H202" transform="translate(-76 -171)"/><path class="cls-1" d="M202,171v18H76s.08-18,0-18H202" transform="translate(-76 -171)"/><rect class="cls-1" x="36.01" y="68.32" width="54.02" height="18.02"/><rect class="cls-1" x="36.01" y="102.5" width="54.02" height="18.02"/><rect class="cls-1" x="36.01" y="136.63" width="54.02" height="18.02"/><path class="cls-1" d="M357,171c16.56,1.57,30.9,7,43.11,18,0,0-180.14.06-180.14,0V171" transform="translate(-76 -171)"/><path class="cls-1" d="M414.16,205.13c3,6,5.27,11,5.27,18H220v-18" transform="translate(-76 -171)"/><path class="cls-1" d="M421,239.32c0,6.28-.54,12.51-2.37,18H364v-18" transform="translate(-76 -171)"/><path class="cls-1" d="M256,273.5H410.5a67.5,67.5,0,0,1-15.11,18H256v-18" transform="translate(-76 -171)"/><path class="cls-1" d="M256,307.69H394.55a87.73,87.73,0,0,1,16.48,18H256v-18" transform="translate(-76 -171)"/><polyline class="cls-1" points="179.99 188.84 179.99 170.82 234.01 170.82 234.01 188.84"/><path class="cls-1" d="M419,341.82c2.67,5.5,3,11.73,3.58,18H364v-18" transform="translate(-76 -171)"/><path class="cls-1" d="M420.19,376c-1.3,6-2.37,13.13-6.87,18H220V376" transform="translate(-76 -171)"/><path class="cls-1" d="M220,428.21v-18H401.19c-12.21,11.51-28.92,17.74-47,18" transform="translate(-76 -171)"/><polyline class="cls-1" points="179.99 86.34 179.99 68.32 234.01 68.32 234.01 86.34"/><polyline class="cls-1" points="648.02 17.96 539.67 18.02 546 0.06 648.02 0"/><path class="cls-1" d="M436,171l102.17.06,6.41,17.9H436" transform="translate(-76 -171)"/><path class="cls-1" d="M724,223.15H603.84s6.18-18,6.18-18l114,.06" transform="translate(-76 -171)"/><polyline class="cls-1" points="480.46 52.15 359.98 52.15 359.98 34.13 474.13 34.24"/><polyline class="cls-1" points="515.86 86.34 522.04 68.32 612 68.37 612 86.34"/><polyline class="cls-1" points="486.03 68.37 492.44 86.39 396 86.34 396 68.37"/><path class="cls-1" d="M526,277.94v13.58H472v-18H574.09l6,17,6.11-17H688v18H634V277.94l-4.65,13.58-98.43,0" transform="translate(-76 -171)"/><path class="cls-1" d="M623.53,307.75l-6.26,17.9-74.39.06s-6.33-18-6.41-18" transform="translate(-76 -171)"/><path class="cls-1" d="M605.29,359.78l6.34-18-63,.06,6.26,17.9s50.36.12,50.43,0" transform="translate(-76 -171)"/><polyline class="cls-1" points="517.16 222.97 490.69 223.03 484.66 205.01 523.57 205.01"/><polyline class="cls-1" points="505.26 257.21 502.74 257.21 496.41 239.19 511.67 239.19"/><rect class="cls-1" x="359.98" y="239.19" width="90.03" height="18.02"/><polyline class="cls-1" points="396 188.84 396 170.82 450.02 170.82 450.02 188.84"/><polyline class="cls-1" points="557.98 188.84 557.98 170.82 612 170.82 612 188.84"/><polyline class="cls-1" points="557.98 154.65 557.98 136.69 612 136.69 612 154.65"/><polyline class="cls-1" points="396 154.65 396 136.69 450.02 136.69 450.02 154.65"/><rect class="cls-1" x="359.98" y="205.01" width="90.03" height="18.02"/><rect class="cls-1" x="557.98" y="239.19" width="90.03" height="18.02"/><rect class="cls-1" x="557.98" y="205.01" width="90.03" height="18.02"/></svg>